<svg version="1.1" id="Uploaded to svgrepo.com" xmlns="http://www.w3.org/2000/svg" xmlns:xlink="http://www.w3.org/1999/xlink" x="0px" y="0px"
	 width="32px" height="32px" viewBox="0 0 32 32" style="enable-background:new 0 0 32 32;" xml:space="preserve">
<style type="text/css">
	.linesandangles_een{fill:#111918;}
</style>
<path class="linesandangles_een" d="M24.942,22c-0.276-3.03-1.778-4.433-3.249-5.777c-0.322-0.294-0.655-0.598-0.987-0.93
	c-1.267-1.267-1.593-3.617-1.678-4.708C19.626,9.886,20,8.991,20,8c0-2.209-1.791-4-4-4s-4,1.791-4,4
	c0,0.992,0.374,1.888,0.972,2.587c-0.095,1.269-0.492,3.519-1.679,4.706c-0.332,0.332-0.665,0.636-0.987,0.93
	C8.836,17.567,7.334,18.97,7.058,22H6v6h20v-6H24.942z M16,6c1.103,0,2,0.897,2,2s-0.897,2-2,2s-2-0.897-2-2S14.897,6,16,6z
	 M11.655,17.699c0.344-0.314,0.698-0.638,1.052-0.992c1.355-1.354,1.906-3.416,2.133-4.898C15.21,11.922,15.594,12,16,12
	s0.79-0.078,1.16-0.191c0.227,1.482,0.779,3.544,2.133,4.898c0.354,0.354,0.708,0.678,1.052,0.992
	c1.348,1.232,2.369,2.166,2.604,4.301H9.051C9.287,19.865,10.308,18.932,11.655,17.699z M24,26H8v-2h16V26z"/>
</svg>